<?xml version="1.0" encoding="UTF-8" standalone="no"?>
<svg xmlns="http://www.w3.org/2000/svg" viewBox="0 0 24 24"><title>Itunes</title><g id="Itunes"><g id="_Group_" data-name="&lt;Group&gt;"><circle id="_Path_" data-name="&lt;Path&gt;" cx="12" cy="12" r="11.5" style="fill:none;stroke:#303c42;stroke-linecap:round;stroke-linejoin:round"/><path id="_Path_2" data-name="&lt;Path&gt;" d="M9.5,14.5V17a1.23,1.23,0,0,1-1,1.22l-.53.09A1.23,1.23,0,0,1,6.5,17h0a1.23,1.23,0,0,1,1-1.22l.94-.16a1.23,1.23,0,0,0,1-1.22v-8l7-1v8a1.23,1.23,0,0,1-1,1.22l-.94.16a1.23,1.23,0,0,0-1,1.22h0a1.23,1.23,0,0,0,1.44,1.22l.53-.09a1.23,1.23,0,0,0,1-1.22V13.5" style="fill:none;stroke:#303c42;stroke-linecap:round;stroke-linejoin:round"/><line id="_Path_3" data-name="&lt;Path&gt;" x1="9.5" y1="9" x2="16.5" y2="8" style="fill:none;stroke:#303c42;stroke-linecap:round;stroke-linejoin:round"/></g></g>
	<metadata>
		<rdf:RDF xmlns:rdf="http://www.w3.org/1999/02/22-rdf-syntax-ns#" xmlns:rdfs="http://www.w3.org/2000/01/rdf-schema#" xmlns:dc="http://purl.org/dc/elements/1.1/">
			<rdf:Description about="https://iconscout.com/legal#licenses" dc:title="social; media; social media; logo; itunes" dc:description="social; media; social media; logo; itunes" dc:publisher="Iconscout" dc:date="2017-02-21" dc:format="image/svg+xml" dc:language="en">
				<dc:creator>
					<rdf:Bag>
						<rdf:li>Alpár - Etele Méder</rdf:li>
					</rdf:Bag>
				</dc:creator>
			</rdf:Description>
		</rdf:RDF>
    </metadata></svg>
