<?xml version="1.0" encoding="UTF-8" standalone="no"?>
<svg xmlns="http://www.w3.org/2000/svg" viewBox="0 0 24 24"><title>Drupal</title><g id="Drupal"><g id="_Group_" data-name="&lt;Group&gt;"><path id="_Path_" data-name="&lt;Path&gt;" d="M16,4.26A20.3,20.3,0,0,1,11.5.5,9.24,9.24,0,0,1,8.38,4.12,10,10,0,0,0,1.5,13.5,10.26,10.26,0,0,0,12,23.5a10.26,10.26,0,0,0,10.5-10A10,10,0,0,0,16,4.26Z" style="fill:none;stroke:#303c42;stroke-linecap:round;stroke-linejoin:round"/><path id="_Path_2" data-name="&lt;Path&gt;" d="M15,15c-2.53-2.44-4.12-3.5-5.5-3.5-2.66,0-4,1.69-4,3.5A3.49,3.49,0,0,0,9,18.5C11.06,18.5,15,15,15,15Z" style="fill:none;stroke:#303c42;stroke-linecap:round;stroke-linejoin:round"/><path id="_Path_3" data-name="&lt;Path&gt;" d="M15,15c2.31-1.66,2.78-2.5,4-2.5s1.5,1.34,1.5,2.5-.75,3-2,3S15,15,15,15Z" style="fill:none;stroke:#303c42;stroke-linecap:round;stroke-linejoin:round"/><path id="_Path_4" data-name="&lt;Path&gt;" d="M12.5,19.5a2.17,2.17,0,0,1,2-1,.9.9,0,0,1,1,1" style="fill:none;stroke:#303c42;stroke-linecap:round;stroke-linejoin:round"/><path id="_Path_5" data-name="&lt;Path&gt;" d="M10.5,21A7.75,7.75,0,0,0,16,21" style="fill:none;stroke:#303c42;stroke-linecap:round;stroke-linejoin:round"/></g></g>
	<metadata>
		<rdf:RDF xmlns:rdf="http://www.w3.org/1999/02/22-rdf-syntax-ns#" xmlns:rdfs="http://www.w3.org/2000/01/rdf-schema#" xmlns:dc="http://purl.org/dc/elements/1.1/">
			<rdf:Description about="https://iconscout.com/legal#licenses" dc:title="social; media; social media; logo; drupal" dc:description="social; media; social media; logo; drupal" dc:publisher="Iconscout" dc:date="2017-02-21" dc:format="image/svg+xml" dc:language="en">
				<dc:creator>
					<rdf:Bag>
						<rdf:li>Alpár - Etele Méder</rdf:li>
					</rdf:Bag>
				</dc:creator>
			</rdf:Description>
		</rdf:RDF>
    </metadata></svg>
