<?xml version="1.0" encoding="UTF-8" standalone="no"?>
<svg xmlns="http://www.w3.org/2000/svg" viewBox="0 0 24 24"><title>Codepen</title><g id="Codepen"><g id="_Group_" data-name="&lt;Group&gt;"><path id="_Path_" data-name="&lt;Path&gt;" d="M12,.5h0a3.3,3.3,0,0,1,1.83.55l8.78,5.85a2,2,0,0,1,.89,1.66v6.86a2,2,0,0,1-.89,1.66l-8.78,5.85A3.3,3.3,0,0,1,12,23.5h0a3.3,3.3,0,0,1-1.83-.55L1.39,17.09A2,2,0,0,1,.5,15.43V8.57a2,2,0,0,1,.89-1.66l8.78-5.85A3.3,3.3,0,0,1,12,.5Z" style="fill:none;stroke:#303c42;stroke-linecap:round;stroke-linejoin:round"/><polygon id="_Path_2" data-name="&lt;Path&gt;" points="10.5 3.5 10.5 8.5 7.5 10.5 3.5 8 10.5 3.5" style="fill:none;stroke:#303c42;stroke-linecap:round;stroke-linejoin:round"/><polygon id="_Path_3" data-name="&lt;Path&gt;" points="13.5 3.5 13.5 8.5 16.5 10.5 20.5 8 13.5 3.5" style="fill:none;stroke:#303c42;stroke-linecap:round;stroke-linejoin:round"/><polygon id="_Path_4" data-name="&lt;Path&gt;" points="13.5 20.5 13.5 15.5 16.5 13.5 20.5 16 13.5 20.5" style="fill:none;stroke:#303c42;stroke-linecap:round;stroke-linejoin:round"/><polygon id="_Path_5" data-name="&lt;Path&gt;" points="10.5 20.5 10.5 15.5 7.5 13.5 3.5 16 10.5 20.5" style="fill:none;stroke:#303c42;stroke-linecap:round;stroke-linejoin:round"/><polygon id="_Path_6" data-name="&lt;Path&gt;" points="2.5 10.5 5 12 2.5 13.5 2.5 10.5" style="fill:none;stroke:#303c42;stroke-linecap:round;stroke-linejoin:round"/><polygon id="_Path_7" data-name="&lt;Path&gt;" points="21.5 13.5 19 12 21.5 10.5 21.5 13.5" style="fill:none;stroke:#303c42;stroke-linecap:round;stroke-linejoin:round"/><polygon id="_Path_8" data-name="&lt;Path&gt;" points="12 10 9 12 12 14 15 12 12 10" style="fill:none;stroke:#303c42;stroke-linecap:round;stroke-linejoin:round"/></g></g>
	<metadata>
		<rdf:RDF xmlns:rdf="http://www.w3.org/1999/02/22-rdf-syntax-ns#" xmlns:rdfs="http://www.w3.org/2000/01/rdf-schema#" xmlns:dc="http://purl.org/dc/elements/1.1/">
			<rdf:Description about="https://iconscout.com/legal#licenses" dc:title="social; media; social media; logo; codepen" dc:description="social; media; social media; logo; codepen" dc:publisher="Iconscout" dc:date="2017-02-21" dc:format="image/svg+xml" dc:language="en">
				<dc:creator>
					<rdf:Bag>
						<rdf:li>Alpár - Etele Méder</rdf:li>
					</rdf:Bag>
				</dc:creator>
			</rdf:Description>
		</rdf:RDF>
    </metadata></svg>
