<?xml version="1.0" encoding="UTF-8" standalone="no"?>
<svg xmlns="http://www.w3.org/2000/svg" viewBox="0 0 24 24"><title>Path</title><g id="Path"><g id="_Group_" data-name="&lt;Group&gt;"><path id="_Path_" data-name="&lt;Path&gt;" d="M12,.5C5.65.5.5,4.53.5,9.5a7.67,7.67,0,0,0,2,5l2.44-1.73A4.83,4.83,0,0,1,3.5,9.5c0-3.31,3.81-6,8.5-6s8.5,2.69,8.5,6-4.69,5.5-9,4v-6h-3v11c0,3.28-3,1-3,1v3a3.93,3.93,0,0,0,2.5,1,3.92,3.92,0,0,0,3.5-4v-3c7.41,1.88,12-2,12-7S18.35.5,12,.5Z" style="fill:none;stroke:#303c42;stroke-linecap:round;stroke-linejoin:round"/></g></g>
	<metadata>
		<rdf:RDF xmlns:rdf="http://www.w3.org/1999/02/22-rdf-syntax-ns#" xmlns:rdfs="http://www.w3.org/2000/01/rdf-schema#" xmlns:dc="http://purl.org/dc/elements/1.1/">
			<rdf:Description about="https://iconscout.com/legal#licenses" dc:title="social; media; social media; logo; path" dc:description="social; media; social media; logo; path" dc:publisher="Iconscout" dc:date="2017-02-21" dc:format="image/svg+xml" dc:language="en">
				<dc:creator>
					<rdf:Bag>
						<rdf:li>Alpár - Etele Méder</rdf:li>
					</rdf:Bag>
				</dc:creator>
			</rdf:Description>
		</rdf:RDF>
    </metadata></svg>
