<?xml version="1.0" encoding="UTF-8" standalone="no"?>
<svg xmlns="http://www.w3.org/2000/svg" viewBox="0 0 24 24"><title>Workplace</title><g id="Workplace"><g id="_Group_" data-name="&lt;Group&gt;"><circle id="_Path_" data-name="&lt;Path&gt;" cx="12" cy="12" r="11.5" style="fill:none;stroke:#303c42;stroke-linecap:round;stroke-linejoin:round"/><path id="_Path_2" data-name="&lt;Path&gt;" d="M12,3.5A8.5,8.5,0,0,0,3.5,12a8.12,8.12,0,0,0,2.6,5.75c2.79,2.71,5.22,3,7.4,2.61v-2a6.13,6.13,0,0,1-4.42-.57,6.58,6.58,0,0,1-3.54-5A6.5,6.5,0,0,1,12,5.5c3.42,0,5.24,2.64,5.5,6a2.86,2.86,0,0,1-1,2.5l-1.17-3.5a1.46,1.46,0,0,0-1.38-1h0a1.46,1.46,0,0,0-1.33.87L11,14,9.5,9.5h-2l2.14,5.56A1.46,1.46,0,0,0,11,16h0a1.46,1.46,0,0,0,1.33-.87L14,11.5,15.17,15a1.46,1.46,0,0,0,1.38,1h.35A1.45,1.45,0,0,0,18,15.51a6,6,0,0,0,1.51-4C19.24,7,16.53,3.5,12,3.5Z" style="fill:none;stroke:#303c42;stroke-linecap:round;stroke-linejoin:round"/></g></g>
	<metadata>
		<rdf:RDF xmlns:rdf="http://www.w3.org/1999/02/22-rdf-syntax-ns#" xmlns:rdfs="http://www.w3.org/2000/01/rdf-schema#" xmlns:dc="http://purl.org/dc/elements/1.1/">
			<rdf:Description about="https://iconscout.com/legal#licenses" dc:title="social; media; social media; logo; workplace" dc:description="social; media; social media; logo; workplace" dc:publisher="Iconscout" dc:date="2017-02-21" dc:format="image/svg+xml" dc:language="en">
				<dc:creator>
					<rdf:Bag>
						<rdf:li>Alpár - Etele Méder</rdf:li>
					</rdf:Bag>
				</dc:creator>
			</rdf:Description>
		</rdf:RDF>
    </metadata></svg>
