<?xml version="1.0" encoding="UTF-8" standalone="no"?>
<svg xmlns="http://www.w3.org/2000/svg" viewBox="0 0 24 24"><title>Odnoklassniki</title><g id="Odnoklassniki"><g id="_Group_" data-name="&lt;Group&gt;"><circle id="_Path_" data-name="&lt;Path&gt;" cx="12" cy="6" r="5.5" style="fill:none;stroke:#303c42;stroke-miterlimit:10"/><circle id="_Path_2" data-name="&lt;Path&gt;" cx="12" cy="6" r="2.5" style="fill:none;stroke:#303c42;stroke-miterlimit:10"/><path id="_Path_3" data-name="&lt;Path&gt;" d="M17.12,12.16a8.56,8.56,0,0,1-10.25,0A1.47,1.47,0,0,0,4.5,13.3a2.17,2.17,0,0,0,1,1.81,11.84,11.84,0,0,0,3,1.43,12.23,12.23,0,0,0,1.52.36L6,20.76A1.61,1.61,0,0,0,8.32,23L12,19.21,15.68,23A1.61,1.61,0,0,0,18,20.76L14,16.89a12.23,12.23,0,0,0,1.52-.36,11.84,11.84,0,0,0,3-1.43,2.17,2.17,0,0,0,1-1.81A1.47,1.47,0,0,0,17.12,12.16Z" style="fill:none;stroke:#303c42;stroke-linecap:round;stroke-linejoin:round"/></g></g>
	<metadata>
		<rdf:RDF xmlns:rdf="http://www.w3.org/1999/02/22-rdf-syntax-ns#" xmlns:rdfs="http://www.w3.org/2000/01/rdf-schema#" xmlns:dc="http://purl.org/dc/elements/1.1/">
			<rdf:Description about="https://iconscout.com/legal#licenses" dc:title="social; media; social media; logo; Odnoklassniki" dc:description="social; media; social media; logo; Odnoklassniki" dc:publisher="Iconscout" dc:date="2017-02-21" dc:format="image/svg+xml" dc:language="en">
				<dc:creator>
					<rdf:Bag>
						<rdf:li>Alpár - Etele Méder</rdf:li>
					</rdf:Bag>
				</dc:creator>
			</rdf:Description>
		</rdf:RDF>
    </metadata></svg>
