<?xml version="1.0" encoding="UTF-8" standalone="no"?>
<svg xmlns="http://www.w3.org/2000/svg" viewBox="0 0 24 24"><title>Wikipedia</title><g id="Wikipedia"><g id="_Group_" data-name="&lt;Group&gt;"><polygon id="_Path_" data-name="&lt;Path&gt;" points="19.5 3.5 19.5 4.5 21.26 4.5 15.5 16.5 13.21 10.78 16.26 4.5 17.5 4.5 17.5 3.5 13.5 3.5 13.5 4.5 14.76 4.5 12.54 9.11 10.7 4.5 12 4.5 12 3.5 7 3.5 7 4.5 8.7 4.5 11.43 11.44 9 16.5 4.2 4.5 5.5 4.5 5.5 3.5 0.5 3.5 0.5 4.5 2.2 4.5 8.5 20.5 12.09 13.1 15 20.5 22.76 4.5 23.5 4.5 23.5 3.5 19.5 3.5" style="fill:none;stroke:#303c42;stroke-linecap:round;stroke-linejoin:round"/></g></g>
	<metadata>
		<rdf:RDF xmlns:rdf="http://www.w3.org/1999/02/22-rdf-syntax-ns#" xmlns:rdfs="http://www.w3.org/2000/01/rdf-schema#" xmlns:dc="http://purl.org/dc/elements/1.1/">
			<rdf:Description about="https://iconscout.com/legal#licenses" dc:title="social; media; social media; logo; wikipedia" dc:description="social; media; social media; logo; wikipedia" dc:publisher="Iconscout" dc:date="2017-02-21" dc:format="image/svg+xml" dc:language="en">
				<dc:creator>
					<rdf:Bag>
						<rdf:li>Alpár - Etele Méder</rdf:li>
					</rdf:Bag>
				</dc:creator>
			</rdf:Description>
		</rdf:RDF>
    </metadata></svg>
