<?xml version="1.0" encoding="UTF-8" standalone="no"?>
<svg xmlns="http://www.w3.org/2000/svg" viewBox="0 0 24 24"><title>Confluence</title><g id="Confluence"><g id="_Group_" data-name="&lt;Group&gt;"><polygon id="_Path_" data-name="&lt;Path&gt;" points="14 3.5 10 3.5 12 6.5 14 3.5" style="fill:none;stroke:#303c42;stroke-linecap:round;stroke-linejoin:round"/><path id="_Path_2" data-name="&lt;Path&gt;" d="M5.5,21.5l-2.26-.24A9.54,9.54,0,0,0,5.5,21.5Z" style="fill:none;stroke:#303c42;stroke-linecap:round;stroke-linejoin:round"/><path id="_Path_3" data-name="&lt;Path&gt;" d="M20.76,21.26l-2.26.24A9.54,9.54,0,0,0,20.76,21.26Z" style="fill:none;stroke:#303c42;stroke-linecap:round;stroke-linejoin:round"/><path id="_Path_4" data-name="&lt;Path&gt;" d="M7.38,15.8C3.33,16.34.5,17.57.5,19c0,.86,1,1.65,2.74,2.26-1.1-.43-1.74-1-1.74-1.51,0-1,2.13-1.91,5.27-2.38A7.43,7.43,0,0,0,6.5,19.5h3a6.37,6.37,0,0,1,1.25-3.45c-.61-.75-1.33-1.53-2.08-2.3A13,13,0,0,0,7.38,15.8Z" style="fill:none;stroke:#303c42;stroke-linecap:round;stroke-linejoin:round"/><path id="_Path_5" data-name="&lt;Path&gt;" d="M16.62,15.8A16.26,16.26,0,0,0,14,12.2c3-3.12,6.46-6.33,6.46-9.7l-3,.5A26.71,26.71,0,0,1,12,10.06,26.72,26.72,0,0,1,6.5,3l-3-.5c0,6,11,11.54,11,17h3a7.49,7.49,0,0,0-.28-2.13c3.15.47,5.28,1.36,5.28,2.38,0,.56-.64,1.08-1.74,1.51,1.71-.61,2.74-1.4,2.74-2.26C23.5,17.57,20.67,16.34,16.62,15.8Z" style="fill:none;stroke:#303c42;stroke-linecap:round;stroke-linejoin:round"/></g></g>
	<metadata>
		<rdf:RDF xmlns:rdf="http://www.w3.org/1999/02/22-rdf-syntax-ns#" xmlns:rdfs="http://www.w3.org/2000/01/rdf-schema#" xmlns:dc="http://purl.org/dc/elements/1.1/">
			<rdf:Description about="https://iconscout.com/legal#licenses" dc:title="social; media; social media; logo; confluence" dc:description="social; media; social media; logo; confluence" dc:publisher="Iconscout" dc:date="2017-02-21" dc:format="image/svg+xml" dc:language="en">
				<dc:creator>
					<rdf:Bag>
						<rdf:li>Alpár - Etele Méder</rdf:li>
					</rdf:Bag>
				</dc:creator>
			</rdf:Description>
		</rdf:RDF>
    </metadata></svg>
