<?xml version="1.0" encoding="UTF-8" standalone="no"?>
<svg xmlns="http://www.w3.org/2000/svg" viewBox="0 0 24 24"><title>Vine</title><g id="Vine"><g id="_Group_" data-name="&lt;Group&gt;"><path id="_Path_" data-name="&lt;Path&gt;" d="M22.5,11.11a13.18,13.18,0,0,1-2.5.39,5,5,0,0,1-5-5,2.79,2.79,0,0,1,2.5-3,2.3,2.3,0,0,1,2,2.5,8.71,8.71,0,0,1-.57,2.5c.66.66,2.85,1,2.85,1A11.68,11.68,0,0,0,22.5,6a5.27,5.27,0,0,0-5-5.5,5.77,5.77,0,0,0-5.5,6,8,8,0,0,0,4.64,7.25c-2.21,4.22-4.38,6.66-5.12,6.75-1.89-.33-7-10.38-7-16h-3c0,5.51,5.34,19,10,19,3.17,0,6.49-5.71,8.14-9l.36,0a13.54,13.54,0,0,0,2.5-.32Z" style="fill:none;stroke:#303c42;stroke-linecap:round;stroke-linejoin:round"/></g></g>
	<metadata>
		<rdf:RDF xmlns:rdf="http://www.w3.org/1999/02/22-rdf-syntax-ns#" xmlns:rdfs="http://www.w3.org/2000/01/rdf-schema#" xmlns:dc="http://purl.org/dc/elements/1.1/">
			<rdf:Description about="https://iconscout.com/legal#licenses" dc:title="social; media; social media; logo; vine" dc:description="social; media; social media; logo; vine" dc:publisher="Iconscout" dc:date="2017-02-21" dc:format="image/svg+xml" dc:language="en">
				<dc:creator>
					<rdf:Bag>
						<rdf:li>Alpár - Etele Méder</rdf:li>
					</rdf:Bag>
				</dc:creator>
			</rdf:Description>
		</rdf:RDF>
    </metadata></svg>
