<?xml version="1.0" encoding="UTF-8" standalone="no"?>
<svg xmlns="http://www.w3.org/2000/svg" viewBox="0 0 24 24"><title>Viber</title><g id="Viber"><g id="_Group_" data-name="&lt;Group&gt;"><path id="_Path_" data-name="&lt;Path&gt;" d="M8.5,13.5c1.3,1.3,4.17,3,5.5,3a2.53,2.53,0,0,0,2.5-2v-1s-1.23-.6-2-1-2,1-2,1A6.52,6.52,0,0,1,10,12,6.52,6.52,0,0,1,8.5,9.5s1.4-1.23,1-2-1-2-1-2h-1A2.53,2.53,0,0,0,5.5,8C5.5,9.33,7.2,12.2,8.5,13.5Z" style="fill:none;stroke:#303c42;stroke-linecap:round;stroke-linejoin:round"/><path id="_Path_2" data-name="&lt;Path&gt;" d="M12,8.5A1.5,1.5,0,0,1,13.5,10" style="fill:none;stroke:#303c42;stroke-linecap:round;stroke-linejoin:round"/><path id="_Path_3" data-name="&lt;Path&gt;" d="M12,4.5A5.5,5.5,0,0,1,17.5,10" style="fill:none;stroke:#303c42;stroke-linecap:round;stroke-linejoin:round"/><path id="_Path_4" data-name="&lt;Path&gt;" d="M12,6.5A3.5,3.5,0,0,1,15.5,10" style="fill:none;stroke:#303c42;stroke-linecap:round;stroke-linejoin:round"/><path id="_Path_5" data-name="&lt;Path&gt;" d="M12,1.5c-5.45,0-10.5.88-10.5,9,0,5.2,2.08,7.43,5,8.36v2.61a1,1,0,0,0,1.81.68l2.34-2.67,1.35,0c5.45,0,10.5-.87,10.5-9S17.45,1.5,12,1.5Z" style="fill:none;stroke:#303c42;stroke-linecap:round;stroke-linejoin:round"/></g></g>
	<metadata>
		<rdf:RDF xmlns:rdf="http://www.w3.org/1999/02/22-rdf-syntax-ns#" xmlns:rdfs="http://www.w3.org/2000/01/rdf-schema#" xmlns:dc="http://purl.org/dc/elements/1.1/">
			<rdf:Description about="https://iconscout.com/legal#licenses" dc:title="social; media; social media; logo; viber" dc:description="social; media; social media; logo; viber" dc:publisher="Iconscout" dc:date="2017-02-21" dc:format="image/svg+xml" dc:language="en">
				<dc:creator>
					<rdf:Bag>
						<rdf:li>Alpár - Etele Méder</rdf:li>
					</rdf:Bag>
				</dc:creator>
			</rdf:Description>
		</rdf:RDF>
    </metadata></svg>
