<?xml version="1.0" encoding="UTF-8" standalone="no"?>
<svg xmlns="http://www.w3.org/2000/svg" viewBox="0 0 24 24"><title>Behance</title><g id="Behance"><g id="_Group_" data-name="&lt;Group&gt;"><path id="_Path_" data-name="&lt;Path&gt;" d="M11.45,12.78A4.18,4.18,0,0,1,12,15a4.6,4.6,0,0,1-.62,2.39,4.07,4.07,0,0,1-1,1.18,3.72,3.72,0,0,1-1.58.75,9.18,9.18,0,0,1-2,.2H.5V4.5H7.28a4.19,4.19,0,0,1,3.63,1.6,4,4,0,0,1,.64,2.29,3.5,3.5,0,0,1-.65,2.21,3.34,3.34,0,0,1-1.07.85A3.15,3.15,0,0,1,11.45,12.78Z" style="fill:none;stroke:#303c42;stroke-linecap:round;stroke-linejoin:round"/><path id="_Path_2" data-name="&lt;Path&gt;" d="M3.5,10.5h3a2.86,2.86,0,0,0,1.48-.34A1.27,1.27,0,0,0,8.5,9a1.21,1.21,0,0,0-.75-1.25A5.41,5.41,0,0,0,6.1,7.5H3.5Z" style="fill:none;stroke:#303c42;stroke-linecap:round;stroke-linejoin:round"/><path id="_Path_3" data-name="&lt;Path&gt;" d="M8.5,14.63a1.41,1.41,0,0,0-.84-1.41A3.33,3.33,0,0,0,6.34,13H3.5v3.5H6.29a3.12,3.12,0,0,0,1.34-.23A1.65,1.65,0,0,0,8.5,14.63Z" style="fill:none;stroke:#303c42;stroke-linecap:round;stroke-linejoin:round"/><path id="_Compound_Path_" data-name="&lt;Compound Path&gt;" d="M23.48,14.5c0-.16,0-.33,0-.5a5.27,5.27,0,0,0-5-5.5,5.27,5.27,0,0,0-5,5.5,5.27,5.27,0,0,0,5,5.5,5,5,0,0,0,4.45-3H20.24a2.2,2.2,0,0,1-1.74,1c-1.26,0-2.29-1.31-2.46-3Zm-5-4a2.6,2.6,0,0,1,2.25,2h-4.5A2.6,2.6,0,0,1,18.5,10.5Z" style="fill:none;stroke:#303c42;stroke-linecap:round;stroke-linejoin:round"/><rect id="_Rectangle_" data-name="&lt;Rectangle&gt;" x="15.5" y="4.5" width="6" height="2" style="fill:none;stroke:#303c42;stroke-linecap:round;stroke-linejoin:round"/></g></g>
	<metadata>
		<rdf:RDF xmlns:rdf="http://www.w3.org/1999/02/22-rdf-syntax-ns#" xmlns:rdfs="http://www.w3.org/2000/01/rdf-schema#" xmlns:dc="http://purl.org/dc/elements/1.1/">
			<rdf:Description about="https://iconscout.com/legal#licenses" dc:title="social; media; social media; logo; behance" dc:description="social; media; social media; logo; behance" dc:publisher="Iconscout" dc:date="2017-02-21" dc:format="image/svg+xml" dc:language="en">
				<dc:creator>
					<rdf:Bag>
						<rdf:li>Alpár - Etele Méder</rdf:li>
					</rdf:Bag>
				</dc:creator>
			</rdf:Description>
		</rdf:RDF>
    </metadata></svg>
