<?xml version="1.0" encoding="UTF-8" standalone="no"?>
<svg xmlns="http://www.w3.org/2000/svg" viewBox="0 0 24 24"><title>Yelp</title><g id="Yelp"><g id="_Group_" data-name="&lt;Group&gt;"><path id="_Path_" data-name="&lt;Path&gt;" d="M10,14c0,.48-.34.72-1,1s-2.16.84-3.5,1.5-2-.1-2-1v-3c0-.9.66-1.66,2-1S8.34,12.72,9,13,10,13.52,10,14Z" style="fill:none;stroke:#303c42;stroke-linecap:round;stroke-linejoin:round"/><path id="_Path_2" data-name="&lt;Path&gt;" d="M11.48,16.77c.46.15.58.55.64,1.26s.14,2.31.35,3.79-.72,1.87-1.57,1.59L8,22.49c-.85-.28-1.37-1.14-.33-2.21s2-2.33,2.51-2.87S11,16.62,11.48,16.77Z" style="fill:none;stroke:#303c42;stroke-linecap:round;stroke-linejoin:round"/><path id="_Path_3" data-name="&lt;Path&gt;" d="M14.06,15.88c.28-.39.7-.38,1.4-.22s2.24.58,3.71.84,1.56,1.26,1,2l-1.76,2.43c-.53.72-1.5,1-2.21-.37s-1.58-2.66-1.95-3.27S13.78,16.27,14.06,15.88Z" style="fill:none;stroke:#303c42;stroke-linecap:round;stroke-linejoin:round"/><path id="_Path_4" data-name="&lt;Path&gt;" d="M14.06,13.12c-.28-.39-.14-.78.22-1.4s1.25-2,1.95-3.27,1.68-1.09,2.21-.37l1.76,2.43c.53.72.44,1.73-1,2s-3,.69-3.71.84S14.35,13.51,14.06,13.12Z" style="fill:none;stroke:#303c42;stroke-linecap:round;stroke-linejoin:round"/><path id="_Path_5" data-name="&lt;Path&gt;" d="M11,11.5a1,1,0,0,1-.85-.47l-5-8a1,1,0,0,1,.63-1.51l4.5-1,.22,0a1,1,0,0,1,1,.94l.5,9a1,1,0,0,1-.7,1A1,1,0,0,1,11,11.5Z" style="fill:none;stroke:#303c42;stroke-linecap:round;stroke-linejoin:round"/></g></g>
	<metadata>
		<rdf:RDF xmlns:rdf="http://www.w3.org/1999/02/22-rdf-syntax-ns#" xmlns:rdfs="http://www.w3.org/2000/01/rdf-schema#" xmlns:dc="http://purl.org/dc/elements/1.1/">
			<rdf:Description about="https://iconscout.com/legal#licenses" dc:title="social; media; social media; logo; yelp" dc:description="social; media; social media; logo; yelp" dc:publisher="Iconscout" dc:date="2017-02-21" dc:format="image/svg+xml" dc:language="en">
				<dc:creator>
					<rdf:Bag>
						<rdf:li>Alpár - Etele Méder</rdf:li>
					</rdf:Bag>
				</dc:creator>
			</rdf:Description>
		</rdf:RDF>
    </metadata></svg>
