<?xml version="1.0" encoding="UTF-8" standalone="no"?>
<svg xmlns="http://www.w3.org/2000/svg" viewBox="0 0 24 24"><title>Stumbleupon</title><g id="Stumbleupon"><g id="_Group_" data-name="&lt;Group&gt;"><path id="_Path_" data-name="&lt;Path&gt;" d="M16,17.5A3.5,3.5,0,0,1,12.5,14V9a.5.5,0,0,0-1,0v5a3.5,3.5,0,0,1-7,0V11h3v3a.5.5,0,0,0,1,0V9a3.5,3.5,0,0,1,7,0v5a.5.5,0,0,0,1,0V10.5h3V14A3.5,3.5,0,0,1,16,17.5Z" style="fill:none;stroke:#303c42;stroke-linecap:round;stroke-linejoin:round"/><polyline id="_Path_2" data-name="&lt;Path&gt;" points="12.5 11 14 12 15.5 11" style="fill:none;stroke:#303c42;stroke-linecap:round;stroke-linejoin:round"/><circle id="_Path_3" data-name="&lt;Path&gt;" cx="12" cy="12" r="11.5" style="fill:none;stroke:#303c42;stroke-linecap:round;stroke-linejoin:round"/></g></g>
	<metadata>
		<rdf:RDF xmlns:rdf="http://www.w3.org/1999/02/22-rdf-syntax-ns#" xmlns:rdfs="http://www.w3.org/2000/01/rdf-schema#" xmlns:dc="http://purl.org/dc/elements/1.1/">
			<rdf:Description about="https://iconscout.com/legal#licenses" dc:title="social; media; social media; logo; stumbleupon" dc:description="social; media; social media; logo; stumbleupon" dc:publisher="Iconscout" dc:date="2017-02-21" dc:format="image/svg+xml" dc:language="en">
				<dc:creator>
					<rdf:Bag>
						<rdf:li>Alpár - Etele Méder</rdf:li>
					</rdf:Bag>
				</dc:creator>
			</rdf:Description>
		</rdf:RDF>
    </metadata></svg>
