<?xml version="1.0" encoding="UTF-8" standalone="no"?>
<svg xmlns="http://www.w3.org/2000/svg" viewBox="0 0 24 24"><title>VK Logo</title><g id="VK_Logo" data-name="VK Logo"><g id="_Group_" data-name="&lt;Group&gt;"><path id="_Path_" data-name="&lt;Path&gt;" d="M.5,6.5h4s2.31,6,4.5,6c.41,0,.5-.75.5-3s-.59-3-1-3c0-.41.78-1,3-1s2,.06,2,1v4c0,1.16.38,2,1,2s4.22-4.44,4.5-6h4.5c0,.53-4,6.06-4,6.5s4,4.5,4,5-.87.5-2,.5H19c-.59,0-3.16-3-4.5-3s-.28,3-1.5,3H11C7.28,18.5,1,9.41.5,6.5Z" style="fill:none;stroke:#303c42;stroke-linecap:round;stroke-linejoin:round"/></g></g>
	<metadata>
		<rdf:RDF xmlns:rdf="http://www.w3.org/1999/02/22-rdf-syntax-ns#" xmlns:rdfs="http://www.w3.org/2000/01/rdf-schema#" xmlns:dc="http://purl.org/dc/elements/1.1/">
			<rdf:Description about="https://iconscout.com/legal#licenses" dc:title="social; media; social media; logo; vk" dc:description="social; media; social media; logo; vk" dc:publisher="Iconscout" dc:date="2017-02-21" dc:format="image/svg+xml" dc:language="en">
				<dc:creator>
					<rdf:Bag>
						<rdf:li>Alpár - Etele Méder</rdf:li>
					</rdf:Bag>
				</dc:creator>
			</rdf:Description>
		</rdf:RDF>
    </metadata></svg>
