<?xml version="1.0" encoding="UTF-8" standalone="no"?>
<svg xmlns="http://www.w3.org/2000/svg" viewBox="0 0 24 24"><title>Zootool</title><g id="Zootool"><g id="_Group_" data-name="&lt;Group&gt;"><path id="_Path_" data-name="&lt;Path&gt;" d="M9,.5A2.39,2.39,0,0,0,6.5,3c0,.7.34,2.5,1.5,2.5s1.47-1,2.5-1,2.38,1,5,1c-.56.53-6,5.5-6,5.5A5.39,5.39,0,0,0,7,10.5a3.83,3.83,0,0,0-3.5,4c0,1.44.07,3,1.5,3s2.5-2,2.5-2,2.44,4.56,3.44,6a4.85,4.85,0,0,0,4.06,2c1.46,0,5.5-1.31,5.5-4,0-.94,0-2-.5-2-1.33,0-1.51,1-3.5,1-2.92,0-6-5-6-5s7-5.87,7-7c1-1,3-1.66,3-3.5S19.7.5,19,.5c-1,0-1.5,2-1.5,2A17.11,17.11,0,0,0,9,.5Z" style="fill:none;stroke:#303c42;stroke-linecap:round;stroke-linejoin:round"/></g></g>
	<metadata>
		<rdf:RDF xmlns:rdf="http://www.w3.org/1999/02/22-rdf-syntax-ns#" xmlns:rdfs="http://www.w3.org/2000/01/rdf-schema#" xmlns:dc="http://purl.org/dc/elements/1.1/">
			<rdf:Description about="https://iconscout.com/legal#licenses" dc:title="social; media; social media; logo; zootool" dc:description="social; media; social media; logo; zootool" dc:publisher="Iconscout" dc:date="2017-02-21" dc:format="image/svg+xml" dc:language="en">
				<dc:creator>
					<rdf:Bag>
						<rdf:li>Alpár - Etele Méder</rdf:li>
					</rdf:Bag>
				</dc:creator>
			</rdf:Description>
		</rdf:RDF>
    </metadata></svg>
