<?xml version="1.0" encoding="UTF-8" standalone="no"?>
<svg xmlns="http://www.w3.org/2000/svg" viewBox="0 0 24 24"><title>Envato</title><g id="Envato"><g id="_Group_" data-name="&lt;Group&gt;"><path id="_Path_" data-name="&lt;Path&gt;" d="M19.53,1c-.22-.33-1.16-.5-2-.5a11.39,11.39,0,0,0-6.16,2A13.22,13.22,0,0,0,6.64,14.68a.7.7,0,0,1-1.3.45A10.42,10.42,0,0,1,4,9.37a9.58,9.58,0,0,1,.54-2.64.4.4,0,0,0-.68-.38,10.44,10.44,0,0,0-2.38,7,10.5,10.5,0,0,0,21-.3C22.5,5.88,20,1.69,19.53,1Z" style="fill:none;stroke:#303c42;stroke-linecap:round;stroke-linejoin:round"/></g></g>
	<metadata>
		<rdf:RDF xmlns:rdf="http://www.w3.org/1999/02/22-rdf-syntax-ns#" xmlns:rdfs="http://www.w3.org/2000/01/rdf-schema#" xmlns:dc="http://purl.org/dc/elements/1.1/">
			<rdf:Description about="https://iconscout.com/legal#licenses" dc:title="social; media; social media; logo; envato" dc:description="social; media; social media; logo; envato" dc:publisher="Iconscout" dc:date="2017-02-21" dc:format="image/svg+xml" dc:language="en">
				<dc:creator>
					<rdf:Bag>
						<rdf:li>Alpár - Etele Méder</rdf:li>
					</rdf:Bag>
				</dc:creator>
			</rdf:Description>
		</rdf:RDF>
    </metadata></svg>
