<?xml version="1.0" encoding="UTF-8" standalone="no"?>
<svg xmlns="http://www.w3.org/2000/svg" viewBox="0 0 24 24"><title>Github 2</title><g id="Github_2" data-name="Github 2"><g id="_Group_" data-name="&lt;Group&gt;"><path id="_Compound_Path_" data-name="&lt;Compound Path&gt;" d="M12,10.72H12c-3,0-5.6-.83-7.15.74a4.54,4.54,0,0,0-1.32,3.3c0,5.11,3.71,5.74,8.46,5.74H12c4.76,0,8.46-.63,8.46-5.74a4.54,4.54,0,0,0-1.32-3.3C17.63,9.89,15,10.72,12,10.72ZM14.17,22.5H9.83C8,22.5.5,22.34.5,12.67A7.61,7.61,0,0,1,2.37,7.46a12.82,12.82,0,0,1,.79-6s2.26.27,5.69,2.8A12.59,12.59,0,0,1,12,4a12.58,12.58,0,0,1,3.15.32c3.43-2.53,5.69-2.8,5.69-2.8a12.82,12.82,0,0,1,.79,6,7.61,7.61,0,0,1,1.87,5.21C23.5,22.34,16,22.5,14.17,22.5Zm3.33-7c0,1.66-.67,3-1.5,3s-1.5-1.34-1.5-3,.67-3,1.5-3S17.5,13.84,17.5,15.5Zm-8,0c0,1.66-.67,3-1.5,3s-1.5-1.34-1.5-3,.67-3,1.5-3S9.5,13.84,9.5,15.5Z" style="fill:none;stroke:#303c42;stroke-linecap:round;stroke-linejoin:round"/></g></g>
	<metadata>
		<rdf:RDF xmlns:rdf="http://www.w3.org/1999/02/22-rdf-syntax-ns#" xmlns:rdfs="http://www.w3.org/2000/01/rdf-schema#" xmlns:dc="http://purl.org/dc/elements/1.1/">
			<rdf:Description about="https://iconscout.com/legal#licenses" dc:title="social; media; social media; logo; github; 2" dc:description="social; media; social media; logo; github; 2" dc:publisher="Iconscout" dc:date="2017-02-21" dc:format="image/svg+xml" dc:language="en">
				<dc:creator>
					<rdf:Bag>
						<rdf:li>Alpár - Etele Méder</rdf:li>
					</rdf:Bag>
				</dc:creator>
			</rdf:Description>
		</rdf:RDF>
    </metadata></svg>
