<?xml version="1.0" encoding="UTF-8" standalone="no"?>
<svg xmlns="http://www.w3.org/2000/svg" viewBox="0 0 24 24"><title>Pinterest</title><g id="Pinterest"><g id="_Group_" data-name="&lt;Group&gt;"><path id="_Path_" data-name="&lt;Path&gt;" d="M7,23.5a2.86,2.86,0,0,1-.63-2.25L8.82,11.12a.47.47,0,0,0,0-.31A5.44,5.44,0,0,1,8.31,9a2.43,2.43,0,0,1,2.64-2.5A2.66,2.66,0,0,1,12.74,7a1.27,1.27,0,0,1,.32,1,6.61,6.61,0,0,1-1.43,3.68.49.49,0,0,0-.15.35,2.47,2.47,0,0,0,2.64,2.5c2.22,0,4.39-3.28,4.39-6C18.5,5.58,16,3,12.44,3,8.34,3,5.5,5.06,5.5,9a3.75,3.75,0,0,0,1.16,2.66l-.83,2.75A7.66,7.66,0,0,1,2.5,8.51c0-2.89,1.8-8,10-8,7.08,0,9,5,9,8,0,2.11-.75,8-6.86,8a4.88,4.88,0,0,1-2.82-.88.55.55,0,0,0-.34-.12l-.13,0a.52.52,0,0,0-.36.3s-1.9,5-2.44,6.11A4.62,4.62,0,0,1,7,23.5Z" style="fill:none;stroke:#303c42;stroke-linecap:round;stroke-linejoin:round"/></g></g>
	<metadata>
		<rdf:RDF xmlns:rdf="http://www.w3.org/1999/02/22-rdf-syntax-ns#" xmlns:rdfs="http://www.w3.org/2000/01/rdf-schema#" xmlns:dc="http://purl.org/dc/elements/1.1/">
			<rdf:Description about="https://iconscout.com/legal#licenses" dc:title="social; media; social media; logo; pinterest" dc:description="social; media; social media; logo; pinterest" dc:publisher="Iconscout" dc:date="2017-02-21" dc:format="image/svg+xml" dc:language="en">
				<dc:creator>
					<rdf:Bag>
						<rdf:li>Alpár - Etele Méder</rdf:li>
					</rdf:Bag>
				</dc:creator>
			</rdf:Description>
		</rdf:RDF>
    </metadata></svg>
