<?xml version="1.0" encoding="UTF-8" standalone="no"?>
<svg xmlns="http://www.w3.org/2000/svg" viewBox="0 0 24 24"><title>Blogger</title><g id="Blogger"><g id="_Group_" data-name="&lt;Group&gt;"><path id="_Path_" data-name="&lt;Path&gt;" d="M13.5,7.5a1,1,0,0,1-1,1h-5a1,1,0,0,1-1-1h0a1,1,0,0,1,1-1h5a1,1,0,0,1,1,1Z" style="fill:none;stroke:#303c42;stroke-linecap:round;stroke-linejoin:round"/><path id="_Path_2" data-name="&lt;Path&gt;" d="M17.5,16.5a1,1,0,0,1-1,1h-9a1,1,0,0,1-1-1h0a1,1,0,0,1,1-1h9a1,1,0,0,1,1,1Z" style="fill:none;stroke:#303c42;stroke-linecap:round;stroke-linejoin:round"/><path id="_Path_3" data-name="&lt;Path&gt;" d="M18.5,9.5v-3a5,5,0,0,0-5-5h-7a5,5,0,0,0-5,5v10a6,6,0,0,0,6,6h9a6,6,0,0,0,6-6v-4a2,2,0,0,0-2-2h-1A1,1,0,0,1,18.5,9.5Z" style="fill:none;stroke:#303c42;stroke-linecap:round;stroke-linejoin:round"/></g></g>
	<metadata>
		<rdf:RDF xmlns:rdf="http://www.w3.org/1999/02/22-rdf-syntax-ns#" xmlns:rdfs="http://www.w3.org/2000/01/rdf-schema#" xmlns:dc="http://purl.org/dc/elements/1.1/">
			<rdf:Description about="https://iconscout.com/legal#licenses" dc:title="social; media; social media; logo; blogger" dc:description="social; media; social media; logo; blogger" dc:publisher="Iconscout" dc:date="2017-02-21" dc:format="image/svg+xml" dc:language="en">
				<dc:creator>
					<rdf:Bag>
						<rdf:li>Alpár - Etele Méder</rdf:li>
					</rdf:Bag>
				</dc:creator>
			</rdf:Description>
		</rdf:RDF>
    </metadata></svg>
