<?xml version="1.0" encoding="UTF-8" standalone="no"?>
<svg xmlns="http://www.w3.org/2000/svg" viewBox="0 0 24 24"><title>500 PX</title><g id="_500_PX" data-name="500 PX"><g id="_Group_" data-name="&lt;Group&gt;"><path id="_Path_" data-name="&lt;Path&gt;" d="M18,.5H6.5V10A8,8,0,0,1,13,6.5a7,7,0,0,1,0,14,6.77,6.77,0,0,1-6.5-5" style="fill:none;stroke:#303c42;stroke-linecap:round;stroke-linejoin:round"/><path id="_Path_2" data-name="&lt;Path&gt;" d="M20.5,20A9.79,9.79,0,0,1,13,23.5a9.19,9.19,0,0,1-9.5-8" style="fill:none;stroke:#303c42;stroke-linecap:round;stroke-linejoin:round"/><path id="_Path_3" data-name="&lt;Path&gt;" d="M9.52,4.12A10,10,0,0,1,13,3.5,9.8,9.8,0,0,1,20.5,7" style="fill:none;stroke:#303c42;stroke-linecap:round;stroke-linejoin:round"/><line id="_Path_4" data-name="&lt;Path&gt;" x1="14.5" y1="12" x2="11.5" y2="15" style="fill:none;stroke:#303c42;stroke-linecap:round;stroke-linejoin:round"/><line id="_Path_5" data-name="&lt;Path&gt;" x1="11.5" y1="12" x2="14.5" y2="15" style="fill:none;stroke:#303c42;stroke-linecap:round;stroke-linejoin:round"/><path id="_Path_6" data-name="&lt;Path&gt;" d="M9,19.11V13.5a4,4,0,1,1,2.5,3.71" style="fill:none;stroke:#303c42;stroke-linecap:round;stroke-linejoin:round"/></g></g>
	<metadata>
		<rdf:RDF xmlns:rdf="http://www.w3.org/1999/02/22-rdf-syntax-ns#" xmlns:rdfs="http://www.w3.org/2000/01/rdf-schema#" xmlns:dc="http://purl.org/dc/elements/1.1/">
			<rdf:Description about="https://iconscout.com/legal#licenses" dc:title="social; media; social media; logo; 500px" dc:description="social; media; social media; logo; 500px" dc:publisher="Iconscout" dc:date="2017-02-21" dc:format="image/svg+xml" dc:language="en">
				<dc:creator>
					<rdf:Bag>
						<rdf:li>Alpár - Etele Méder</rdf:li>
					</rdf:Bag>
				</dc:creator>
			</rdf:Description>
		</rdf:RDF>
    </metadata></svg>
