<?xml version="1.0" encoding="UTF-8" standalone="no"?>
<svg xmlns="http://www.w3.org/2000/svg" viewBox="0 0 24 24"><title>Woo Commerce</title><g id="Woo_Commerce" data-name="Woo Commerce"><g id="_Group_" data-name="&lt;Group&gt;"><path id="_Path_" data-name="&lt;Path&gt;" d="M21.5,5.5H2.5a2,2,0,0,0-2,2v7a2,2,0,0,0,2,2h9.8l3.2,2-1.33-2H21.5a2,2,0,0,0,2-2v-7A2,2,0,0,0,21.5,5.5Z" style="fill:none;stroke:#303c42;stroke-linecap:round;stroke-linejoin:round"/><path id="_Path_2" data-name="&lt;Path&gt;" d="M2.5,7.5c.28,2.09.78,7,1,7s2.75-6,3-6,.91,5.22,2.5,6c0-1.75.31-6,1.5-7.5" style="fill:none;stroke:#303c42;stroke-linecap:round;stroke-linejoin:round"/><path id="_Path_3" data-name="&lt;Path&gt;" d="M15.41,11.5c-.32,1.66-1.44,3-2.5,3s-1.65-1.34-1.33-3,1.44-3,2.5-3S15.73,9.84,15.41,11.5Z" style="fill:none;stroke:#303c42;stroke-linecap:round;stroke-linejoin:round"/><path id="_Path_4" data-name="&lt;Path&gt;" d="M21.41,11.5c-.32,1.66-1.44,3-2.5,3s-1.65-1.34-1.33-3,1.44-3,2.5-3S21.73,9.84,21.41,11.5Z" style="fill:none;stroke:#303c42;stroke-linecap:round;stroke-linejoin:round"/></g></g>
	<metadata>
		<rdf:RDF xmlns:rdf="http://www.w3.org/1999/02/22-rdf-syntax-ns#" xmlns:rdfs="http://www.w3.org/2000/01/rdf-schema#" xmlns:dc="http://purl.org/dc/elements/1.1/">
			<rdf:Description about="https://iconscout.com/legal#licenses" dc:title="social; media; social media; logo; woo commerce" dc:description="social; media; social media; logo; woo commerce" dc:publisher="Iconscout" dc:date="2017-02-21" dc:format="image/svg+xml" dc:language="en">
				<dc:creator>
					<rdf:Bag>
						<rdf:li>Alpár - Etele Méder</rdf:li>
					</rdf:Bag>
				</dc:creator>
			</rdf:Description>
		</rdf:RDF>
    </metadata></svg>
