<?xml version="1.0" encoding="UTF-8" standalone="no"?>
<svg xmlns="http://www.w3.org/2000/svg" viewBox="0 0 24 24"><title>whatsapp</title><g id="whatsapp"><g id="_Group_" data-name="&lt;Group&gt;"><path id="_Path_" data-name="&lt;Path&gt;" d="M12,.5A11.5,11.5,0,0,0,2.46,18.42L.5,23.5l5.23-1.87A11.5,11.5,0,1,0,12,.5Z" style="fill:none;stroke:#303c42;stroke-linecap:round;stroke-linejoin:round"/><path id="_Path_2" data-name="&lt;Path&gt;" d="M9.5,14.5c1.3,1.3,4.17,3,5.5,3a2.53,2.53,0,0,0,2.5-2v-1s-1.23-.6-2-1-2,1-2,1A6.52,6.52,0,0,1,11,13a6.52,6.52,0,0,1-1.5-2.5s1.4-1.23,1-2-1-2-1-2h-1A2.53,2.53,0,0,0,6.5,9C6.5,10.33,8.2,13.2,9.5,14.5Z" style="fill:none;stroke:#303c42;stroke-linecap:round;stroke-linejoin:round"/></g></g>
	<metadata>
		<rdf:RDF xmlns:rdf="http://www.w3.org/1999/02/22-rdf-syntax-ns#" xmlns:rdfs="http://www.w3.org/2000/01/rdf-schema#" xmlns:dc="http://purl.org/dc/elements/1.1/">
			<rdf:Description about="https://iconscout.com/legal#licenses" dc:title="social; media; social media; logo; whatsapp" dc:description="social; media; social media; logo; whatsapp" dc:publisher="Iconscout" dc:date="2017-02-21" dc:format="image/svg+xml" dc:language="en">
				<dc:creator>
					<rdf:Bag>
						<rdf:li>Alpár - Etele Méder</rdf:li>
					</rdf:Bag>
				</dc:creator>
			</rdf:Description>
		</rdf:RDF>
    </metadata></svg>
