<?xml version="1.0" encoding="UTF-8" standalone="no"?>
<svg xmlns="http://www.w3.org/2000/svg" viewBox="0 0 24 24"><title>Youtube 1</title><g id="Youtube_1" data-name="Youtube 1"><g id="_Group_" data-name="&lt;Group&gt;"><g id="_Group_2" data-name="&lt;Group&gt;"><polygon id="_Path_" data-name="&lt;Path&gt;" points="9.5 7.5 9.5 16.5 16.5 12 9.5 7.5" style="fill:none;stroke:#303c42;stroke-linecap:round;stroke-linejoin:round"/></g><path id="_Path_2" data-name="&lt;Path&gt;" d="M3.13,4.17,5,3.93a56.22,56.22,0,0,1,7-.43h0a56.22,56.22,0,0,1,7,.43l1.9.24a3,3,0,0,1,2.63,3v9.7a3,3,0,0,1-2.63,3l-1.9.24a56.22,56.22,0,0,1-7,.43h0a56.22,56.22,0,0,1-7-.43l-1.9-.24a3,3,0,0,1-2.63-3V7.15A3,3,0,0,1,3.13,4.17Z" style="fill:none;stroke:#303c42;stroke-linecap:round;stroke-linejoin:round"/></g></g>
	<metadata>
		<rdf:RDF xmlns:rdf="http://www.w3.org/1999/02/22-rdf-syntax-ns#" xmlns:rdfs="http://www.w3.org/2000/01/rdf-schema#" xmlns:dc="http://purl.org/dc/elements/1.1/">
			<rdf:Description about="https://iconscout.com/legal#licenses" dc:title="social; media; social media; logo; youtube" dc:description="social; media; social media; logo; youtube" dc:publisher="Iconscout" dc:date="2017-02-21" dc:format="image/svg+xml" dc:language="en">
				<dc:creator>
					<rdf:Bag>
						<rdf:li>Alpár - Etele Méder</rdf:li>
					</rdf:Bag>
				</dc:creator>
			</rdf:Description>
		</rdf:RDF>
    </metadata></svg>
