<?xml version="1.0" encoding="UTF-8" standalone="no"?>
<svg xmlns="http://www.w3.org/2000/svg" viewBox="0 0 24 24"><title>Codeigniter</title><g id="Codeigniter"><g id="_Group_" data-name="&lt;Group&gt;"><path id="_Path_" data-name="&lt;Path&gt;" d="M14.5,23.5c3.28-.72,7-3.72,7-7.5s-3.44-6-5-7A1.43,1.43,0,0,1,15,10.5,1.55,1.55,0,0,1,13.5,9c0-1.91.5-1.59.5-3.5s-.22-2.84-2.5-5C12.31,4.56,8.8,6.2,6,9s-3.5,5.25-3.5,7c0,2.21.63,6.28,6,7.5C6.42,21.58,6,20.58,6,19.5a5.63,5.63,0,0,1,2.5-4c-1,2.54.67,3,1.5,3s1.5-.75,1.5-2-2-2-2-3.5a3.88,3.88,0,0,1,1-2.5s-.33,1,1,2,6,3.33,6,6S16.5,22.06,14.5,23.5Z" style="fill:none;stroke:#303c42;stroke-linecap:round;stroke-linejoin:round"/></g></g>
	<metadata>
		<rdf:RDF xmlns:rdf="http://www.w3.org/1999/02/22-rdf-syntax-ns#" xmlns:rdfs="http://www.w3.org/2000/01/rdf-schema#" xmlns:dc="http://purl.org/dc/elements/1.1/">
			<rdf:Description about="https://iconscout.com/legal#licenses" dc:title="social; media; social media; logo; codeigniter" dc:description="social; media; social media; logo; codeigniter" dc:publisher="Iconscout" dc:date="2017-02-21" dc:format="image/svg+xml" dc:language="en">
				<dc:creator>
					<rdf:Bag>
						<rdf:li>Alpár - Etele Méder</rdf:li>
					</rdf:Bag>
				</dc:creator>
			</rdf:Description>
		</rdf:RDF>
    </metadata></svg>
