<?xml version="1.0" encoding="UTF-8" standalone="no"?>
<svg xmlns="http://www.w3.org/2000/svg" viewBox="0 0 24 24"><title>Skype</title><g id="Skype"><g id="_Group_" data-name="&lt;Group&gt;"><path id="_Path_" data-name="&lt;Path&gt;" d="M22.4,13.38A10.43,10.43,0,0,0,12,1.5a10.54,10.54,0,0,0-1.38.1,6.5,6.5,0,0,0-9,9A10.43,10.43,0,0,0,12,22.5a10.54,10.54,0,0,0,1.38-.1,6.5,6.5,0,0,0,9-9Z" style="fill:none;stroke:#303c42;stroke-linecap:round;stroke-linejoin:round"/><path id="_Path_2" data-name="&lt;Path&gt;" d="M12,19.5c-3.14,0-5.5-1.46-5.5-3.4a1,1,0,0,1,1-1,1.07,1.07,0,0,1,1,1c.11.63,1.33,1.4,3.5,1.4s3.5-1.05,3.5-2c0-1.74-1.19-2.25-3.89-3C9.33,11.92,6.5,11.16,6.5,8c0-2,2.2-3.5,5-3.5s5,1.29,5,3a1,1,0,0,1-2,0c0-.25-1.06-1-3-1-1.72,0-3,.79-3,1.5,0,1.47,1.1,1.92,3.62,2.6,2.27.61,5.38,1.44,5.38,4.9C17.5,17.74,15.08,19.5,12,19.5Z" style="fill:none;stroke:#303c42;stroke-linecap:round;stroke-linejoin:round"/></g></g>
	<metadata>
		<rdf:RDF xmlns:rdf="http://www.w3.org/1999/02/22-rdf-syntax-ns#" xmlns:rdfs="http://www.w3.org/2000/01/rdf-schema#" xmlns:dc="http://purl.org/dc/elements/1.1/">
			<rdf:Description about="https://iconscout.com/legal#licenses" dc:title="social; media; social media; logo; skype" dc:description="social; media; social media; logo; skype" dc:publisher="Iconscout" dc:date="2017-02-21" dc:format="image/svg+xml" dc:language="en">
				<dc:creator>
					<rdf:Bag>
						<rdf:li>Alpár - Etele Méder</rdf:li>
					</rdf:Bag>
				</dc:creator>
			</rdf:Description>
		</rdf:RDF>
    </metadata></svg>
