<?xml version="1.0" encoding="UTF-8" standalone="no"?>
<svg xmlns="http://www.w3.org/2000/svg" viewBox="0 0 24 24"><title>Steam</title><g id="Steam"><g id="_Group_" data-name="&lt;Group&gt;"><circle id="_Path_" data-name="&lt;Path&gt;" cx="15.5" cy="9.5" r="2" style="fill:none;stroke:#303c42;stroke-linecap:round;stroke-linejoin:round"/><path id="_Path_2" data-name="&lt;Path&gt;" d="M6.68,18.5A2,2,0,1,0,8.26,15" style="fill:none;stroke:#303c42;stroke-linecap:round;stroke-linejoin:round"/><path id="_Path_3" data-name="&lt;Path&gt;" d="M12,.5A11.5,11.5,0,0,0,.5,12c0,.17,0,.34,0,.51l4.84,2.2a3.4,3.4,0,0,1,3.46-1.1L11.55,10a4,4,0,0,1-.05-.54,4,4,0,1,1,4,4h0l-4,3.29c0,.07,0,.14,0,.22a3.49,3.49,0,0,1-6.95.53L1.17,15.83A11.5,11.5,0,1,0,12,.5Z" style="fill:none;stroke:#303c42;stroke-linecap:round;stroke-linejoin:round"/></g></g>
	<metadata>
		<rdf:RDF xmlns:rdf="http://www.w3.org/1999/02/22-rdf-syntax-ns#" xmlns:rdfs="http://www.w3.org/2000/01/rdf-schema#" xmlns:dc="http://purl.org/dc/elements/1.1/">
			<rdf:Description about="https://iconscout.com/legal#licenses" dc:title="social; media; social media; logo; steam" dc:description="social; media; social media; logo; steam" dc:publisher="Iconscout" dc:date="2017-02-21" dc:format="image/svg+xml" dc:language="en">
				<dc:creator>
					<rdf:Bag>
						<rdf:li>Alpár - Etele Méder</rdf:li>
					</rdf:Bag>
				</dc:creator>
			</rdf:Description>
		</rdf:RDF>
    </metadata></svg>
