<?xml version="1.0" encoding="UTF-8" standalone="no"?>
<svg xmlns="http://www.w3.org/2000/svg" viewBox="0 0 24 24"><title>Youtube 2</title><g id="Youtube_2" data-name="Youtube 2"><g id="_Group_" data-name="&lt;Group&gt;"><line id="_Path_" data-name="&lt;Path&gt;" x1="5.5" y1="20.5" x2="5.5" y2="14.5" style="fill:none;stroke:#303c42;stroke-linecap:round;stroke-linejoin:round"/><line id="_Path_2" data-name="&lt;Path&gt;" x1="3.5" y1="14.5" x2="7.5" y2="14.5" style="fill:none;stroke:#303c42;stroke-linecap:round;stroke-linejoin:round"/><path id="_Path_3" data-name="&lt;Path&gt;" d="M7.5,16.5v2.75A1.25,1.25,0,0,0,8.75,20.5h.5a1.25,1.25,0,0,0,1.25-1.25V16.5" style="fill:none;stroke:#303c42;stroke-linecap:round;stroke-linejoin:round"/><line id="_Path_4" data-name="&lt;Path&gt;" x1="10.5" y1="19.5" x2="10.5" y2="20.5" style="fill:none;stroke:#303c42;stroke-linecap:round;stroke-linejoin:round"/><path id="_Path_5" data-name="&lt;Path&gt;" d="M17.5,18.5h3v-.75a1.25,1.25,0,0,0-1.25-1.25h-.5a1.25,1.25,0,0,0-1.25,1.25v1.5a1.25,1.25,0,0,0,1.25,1.25h.75a1,1,0,0,0,.85-.5" style="fill:none;stroke:#303c42;stroke-linecap:round;stroke-linejoin:round"/><rect id="_Rectangle_" data-name="&lt;Rectangle&gt;" x="1.5" y="12.5" width="21" height="10" rx="2.5" ry="2.5" style="fill:none;stroke:#303c42;stroke-linecap:round;stroke-linejoin:round"/><polyline id="_Path_6" data-name="&lt;Path&gt;" points="4.5 1.5 6.5 6.5 8.5 1.5" style="fill:none;stroke:#303c42;stroke-linecap:round;stroke-linejoin:round"/><line id="_Path_7" data-name="&lt;Path&gt;" x1="6.5" y1="6.5" x2="6.5" y2="10.5" style="fill:none;stroke:#303c42;stroke-linecap:round;stroke-linejoin:round"/><rect id="_Rectangle_2" data-name="&lt;Rectangle&gt;" x="9.5" y="4.5" width="3" height="6" rx="1.5" ry="1.5" style="fill:none;stroke:#303c42;stroke-linecap:round;stroke-linejoin:round"/><g id="_Group_2" data-name="&lt;Group&gt;"><path id="_Path_8" data-name="&lt;Path&gt;" d="M17.5,4.5V9A1.5,1.5,0,0,1,16,10.5h0A1.5,1.5,0,0,1,14.5,9V4.5" style="fill:none;stroke:#303c42;stroke-linecap:round;stroke-linejoin:round"/></g><line id="_Path_9" data-name="&lt;Path&gt;" x1="17.5" y1="9" x2="17.5" y2="10.5" style="fill:none;stroke:#303c42;stroke-linecap:round;stroke-linejoin:round"/><line id="_Path_10" data-name="&lt;Path&gt;" x1="12.5" y1="14.5" x2="12.5" y2="20.5" style="fill:none;stroke:#303c42;stroke-linecap:round;stroke-linejoin:round"/><rect id="_Rectangle_3" data-name="&lt;Rectangle&gt;" x="12.5" y="16.5" width="3" height="4" rx="1.25" ry="1.25" style="fill:none;stroke:#303c42;stroke-linecap:round;stroke-linejoin:round"/></g></g>
	<metadata>
		<rdf:RDF xmlns:rdf="http://www.w3.org/1999/02/22-rdf-syntax-ns#" xmlns:rdfs="http://www.w3.org/2000/01/rdf-schema#" xmlns:dc="http://purl.org/dc/elements/1.1/">
			<rdf:Description about="https://iconscout.com/legal#licenses" dc:title="social; media; social media; logo; youtube, 2" dc:description="social; media; social media; logo; youtube, 2" dc:publisher="Iconscout" dc:date="2017-02-21" dc:format="image/svg+xml" dc:language="en">
				<dc:creator>
					<rdf:Bag>
						<rdf:li>Alpár - Etele Méder</rdf:li>
					</rdf:Bag>
				</dc:creator>
			</rdf:Description>
		</rdf:RDF>
    </metadata></svg>
