<?xml version="1.0" encoding="UTF-8" standalone="no"?>
<svg xmlns="http://www.w3.org/2000/svg" viewBox="0 0 24 24"><title>Treehouse</title><g id="Treehouse"><g id="_Group_" data-name="&lt;Group&gt;"><path id="_Path_" data-name="&lt;Path&gt;" d="M21.56,5.58l-1.7-1c-1.4-.17-2.14.95-2.86,1.87A6.22,6.22,0,0,0,15.5,10c0,1.06,1.26,3,2.13,3.87a1.25,1.25,0,1,1-1.83.1c-.25-.59-.71-1.46-1.3-1.46-.78,0-1.79,3.36-2.31,4.6a1.47,1.47,0,0,1,.31.9,1.5,1.5,0,1,1-2.34-1.23A36,36,0,0,0,12,11.5S9.74,13,8.45,13.73a1,1,0,0,1-1,.77,1,1,0,0,1,0-2c1.28,0,3.27-2.27,4-3C11,10,9.29,10,8.34,10a1,1,0,0,1-.84.5,1,1,0,0,1,0-2,6,6,0,0,0,6-2.5C15,4,15.25,2.48,14.78,1.78l-1.84-1a1.93,1.93,0,0,0-1.88,0L2.44,5.58A1.82,1.82,0,0,0,1.5,7.17v9.67a1.82,1.82,0,0,0,.94,1.58l8.62,4.83a1.93,1.93,0,0,0,1.88,0l8.62-4.83a1.82,1.82,0,0,0,.94-1.58V7.17A1.82,1.82,0,0,0,21.56,5.58Z" style="fill:none;stroke:#303c42;stroke-linecap:round;stroke-linejoin:round"/></g></g>
	<metadata>
		<rdf:RDF xmlns:rdf="http://www.w3.org/1999/02/22-rdf-syntax-ns#" xmlns:rdfs="http://www.w3.org/2000/01/rdf-schema#" xmlns:dc="http://purl.org/dc/elements/1.1/">
			<rdf:Description about="https://iconscout.com/legal#licenses" dc:title="social; media; social media; logo; treehouse" dc:description="social; media; social media; logo; treehouse" dc:publisher="Iconscout" dc:date="2017-02-21" dc:format="image/svg+xml" dc:language="en">
				<dc:creator>
					<rdf:Bag>
						<rdf:li>Alpár - Etele Méder</rdf:li>
					</rdf:Bag>
				</dc:creator>
			</rdf:Description>
		</rdf:RDF>
    </metadata></svg>
