<?xml version="1.0" encoding="UTF-8" standalone="no"?>
<svg xmlns="http://www.w3.org/2000/svg" viewBox="0 0 24 24"><title>Slideshare</title><g id="Slideshare"><g id="_Group_" data-name="&lt;Group&gt;"><path id="_Path_" data-name="&lt;Path&gt;" d="M23.5,11.5c-1.62,1.63-4.12,2.5-10,2.5-.41,0-.48.64-.5,1.91-.88-.64-1.92-1.43-2.5-1.91-5.87,0-8.37-.87-10-2.5a12.15,12.15,0,0,0,5.5,4,13.32,13.32,0,0,0-.5,4,3.87,3.87,0,0,0,3.5,4c.75,0,2-.44,2-1.5V16.5l2,.29V22c0,1.06,1.25,1.5,2,1.5a3.87,3.87,0,0,0,3.5-4,13.32,13.32,0,0,0-.5-4A12.15,12.15,0,0,0,23.5,11.5Z" style="fill:none;stroke:#303c42;stroke-linecap:round;stroke-linejoin:round"/><circle id="_Path_2" data-name="&lt;Path&gt;" cx="8.5" cy="9.5" r="2" style="fill:none;stroke:#303c42;stroke-linecap:round;stroke-linejoin:round"/><circle id="_Path_3" data-name="&lt;Path&gt;" cx="15.5" cy="9.5" r="2" style="fill:none;stroke:#303c42;stroke-linecap:round;stroke-linejoin:round"/><path id="_Path_4" data-name="&lt;Path&gt;" d="M1.5,12V2.5a2,2,0,0,1,2-2h17a2,2,0,0,1,2,2V12" style="fill:none;stroke:#303c42;stroke-linecap:round;stroke-linejoin:round"/></g></g>
	<metadata>
		<rdf:RDF xmlns:rdf="http://www.w3.org/1999/02/22-rdf-syntax-ns#" xmlns:rdfs="http://www.w3.org/2000/01/rdf-schema#" xmlns:dc="http://purl.org/dc/elements/1.1/">
			<rdf:Description about="https://iconscout.com/legal#licenses" dc:title="social; media; social media; logo; slideshare" dc:description="social; media; social media; logo; slideshare" dc:publisher="Iconscout" dc:date="2017-02-21" dc:format="image/svg+xml" dc:language="en">
				<dc:creator>
					<rdf:Bag>
						<rdf:li>Alpár - Etele Méder</rdf:li>
					</rdf:Bag>
				</dc:creator>
			</rdf:Description>
		</rdf:RDF>
    </metadata></svg>
