<?xml version="1.0" encoding="UTF-8" standalone="no"?>
<svg xmlns="http://www.w3.org/2000/svg" viewBox="0 0 24 24"><title>Amazon</title><g id="Amazon"><g id="_Group_" data-name="&lt;Group&gt;"><path id="_Path_" data-name="&lt;Path&gt;" d="M10.5,6a1.8,1.8,0,0,1,2-1.5c1,0,2,.47,2,2.5a17.2,17.2,0,0,0-5,1A4.11,4.11,0,0,0,7,12a3.28,3.28,0,0,0,3.5,3.5c2.34,0,3.53-.75,4-1.5a6.75,6.75,0,0,0,2,1.5l2-2a7.63,7.63,0,0,1-1-3V6.44c0-2.59-1.16-4.94-4.5-4.94s-5,1.33-5.5,4Z" style="fill:none;stroke:#303c42;stroke-linecap:round;stroke-linejoin:round"/><path id="_Path_2" data-name="&lt;Path&gt;" d="M14.5,9c-2.41,0-4,.83-4,2.5A1.39,1.39,0,0,0,12,13C12.6,13,14.5,11.86,14.5,9Z" style="fill:none;stroke:#303c42;stroke-linecap:round;stroke-linejoin:round"/><path id="_Path_3" data-name="&lt;Path&gt;" d="M.5,17.5c1.5,1.5,7.06,3,11.5,3A39.51,39.51,0,0,0,21.5,19s-2.34,3.5-9.5,3.5A16.26,16.26,0,0,1,.5,17.5Z" style="fill:none;stroke:#303c42;stroke-linecap:round;stroke-linejoin:round"/><path id="_Path_4" data-name="&lt;Path&gt;" d="M19.5,17.5A8.09,8.09,0,0,1,22,17c1.21,0,1.5.4,1.5,1,0,1.15-1.5,3-1.5,3" style="fill:none;stroke:#303c42;stroke-linecap:round;stroke-linejoin:round"/></g></g>
	<metadata>
		<rdf:RDF xmlns:rdf="http://www.w3.org/1999/02/22-rdf-syntax-ns#" xmlns:rdfs="http://www.w3.org/2000/01/rdf-schema#" xmlns:dc="http://purl.org/dc/elements/1.1/">
			<rdf:Description about="https://iconscout.com/legal#licenses" dc:title="social; media; social media; logo; amazon" dc:description="social; media; social media; logo; amazon" dc:publisher="Iconscout" dc:date="2017-02-21" dc:format="image/svg+xml" dc:language="en">
				<dc:creator>
					<rdf:Bag>
						<rdf:li>Alpár - Etele Méder</rdf:li>
					</rdf:Bag>
				</dc:creator>
			</rdf:Description>
		</rdf:RDF>
    </metadata></svg>
