<?xml version="1.0" encoding="UTF-8" standalone="no"?>
<svg xmlns="http://www.w3.org/2000/svg" viewBox="0 0 24 24"><title>Wechat</title><g id="Wechat"><g id="_Group_" data-name="&lt;Group&gt;"><circle id="_Path_" data-name="&lt;Path&gt;" cx="6" cy="7" r="0.5" style="fill:none;stroke:#303c42;stroke-linecap:round;stroke-linejoin:round"/><circle id="_Path_2" data-name="&lt;Path&gt;" cx="11" cy="7" r="0.5" style="fill:none;stroke:#303c42;stroke-linecap:round;stroke-linejoin:round"/><path id="_Path_3" data-name="&lt;Path&gt;" d="M23.5,15c0-3-3.13-5.5-7-5.5S9.5,12,9.5,15s3.13,5.5,7,5.5a8.69,8.69,0,0,0,2.35-.32L21.5,21.5l-.83-2.09A5.22,5.22,0,0,0,23.5,15Z" style="fill:none;stroke:#303c42;stroke-linecap:round;stroke-linejoin:round"/><circle id="_Path_4" data-name="&lt;Path&gt;" cx="14" cy="13" r="0.5" style="fill:none;stroke:#303c42;stroke-linecap:round;stroke-linejoin:round"/><circle id="_Path_5" data-name="&lt;Path&gt;" cx="19" cy="13" r="0.5" style="fill:none;stroke:#303c42;stroke-linecap:round;stroke-linejoin:round"/><path id="_Path_6" data-name="&lt;Path&gt;" d="M17,9.52v0c0-3.87-3.69-7-8.25-7S.5,5.63.5,9.5A6.68,6.68,0,0,0,3.73,15L2.5,17.5l2.85-1.63a9.46,9.46,0,0,0,3.4.63,9.75,9.75,0,0,0,1-.06" style="fill:none;stroke:#303c42;stroke-linecap:round;stroke-linejoin:round"/></g></g>
	<metadata>
		<rdf:RDF xmlns:rdf="http://www.w3.org/1999/02/22-rdf-syntax-ns#" xmlns:rdfs="http://www.w3.org/2000/01/rdf-schema#" xmlns:dc="http://purl.org/dc/elements/1.1/">
			<rdf:Description about="https://iconscout.com/legal#licenses" dc:title="social; media; social media; logo; wechat" dc:description="social; media; social media; logo; wechat" dc:publisher="Iconscout" dc:date="2017-02-21" dc:format="image/svg+xml" dc:language="en">
				<dc:creator>
					<rdf:Bag>
						<rdf:li>Alpár - Etele Méder</rdf:li>
					</rdf:Bag>
				</dc:creator>
			</rdf:Description>
		</rdf:RDF>
    </metadata></svg>
