<?xml version="1.0" encoding="UTF-8" standalone="no"?>
<svg xmlns="http://www.w3.org/2000/svg" viewBox="0 0 24 24"><title>Joomla</title><g id="Joomla"><g id="_Group_" data-name="&lt;Group&gt;"><path id="_Compound_Path_" data-name="&lt;Compound Path&gt;" d="M20.42,16.66a4.44,4.44,0,0,0-1.27-4L18.5,12l.65-.65a4.44,4.44,0,0,0,1.27-4,3,3,0,1,0-3.76-3.76,4.44,4.44,0,0,0-4,1.27L12,5.5l-.65-.65a4.44,4.44,0,0,0-4-1.27A3,3,0,1,0,3.58,7.34a4.44,4.44,0,0,0,1.27,4L5.5,12l-.65.65a4.44,4.44,0,0,0-1.27,4,3,3,0,1,0,3.76,3.76,4.44,4.44,0,0,0,4-1.27L12,18.5l.65.65a4.44,4.44,0,0,0,4,1.27,3,3,0,1,0,3.76-3.76ZM13.88,7.12a2.12,2.12,0,1,1,3,3l-.13.13-3-3ZM15,12l-3,3L9,12l3-3ZM7.12,10.12a2.12,2.12,0,0,1,3-3l.13.13-3,3Zm3,6.76a2.12,2.12,0,1,1-3-3l.13-.13,3,3Zm5.26.62a2.12,2.12,0,0,1-1.5-.62l-.13-.13,3-3,.13.13a2.12,2.12,0,0,1-1.5,3.62Z" style="fill:none;stroke:#303c42;stroke-linecap:round;stroke-linejoin:round"/><line id="_Path_" data-name="&lt;Path&gt;" x1="12" y1="5.5" x2="10.25" y2="7.25" style="fill:none;stroke:#303c42;stroke-linecap:round;stroke-linejoin:round"/><line id="_Path_2" data-name="&lt;Path&gt;" x1="5.5" y1="12" x2="7.25" y2="13.75" style="fill:none;stroke:#303c42;stroke-linecap:round;stroke-linejoin:round"/><line id="_Path_3" data-name="&lt;Path&gt;" x1="12" y1="18.5" x2="13.75" y2="16.75" style="fill:none;stroke:#303c42;stroke-linecap:round;stroke-linejoin:round"/><line id="_Path_4" data-name="&lt;Path&gt;" x1="18.5" y1="12" x2="16.75" y2="10.25" style="fill:none;stroke:#303c42;stroke-linecap:round;stroke-linejoin:round"/><line id="_Path_5" data-name="&lt;Path&gt;" x1="7.25" y1="10.25" x2="9" y2="12" style="fill:none;stroke:#303c42;stroke-linecap:round;stroke-linejoin:round"/><line id="_Path_6" data-name="&lt;Path&gt;" x1="10.25" y1="16.75" x2="12" y2="15" style="fill:none;stroke:#303c42;stroke-linecap:round;stroke-linejoin:round"/><line id="_Path_7" data-name="&lt;Path&gt;" x1="16.75" y1="13.75" x2="15" y2="12" style="fill:none;stroke:#303c42;stroke-linecap:round;stroke-linejoin:round"/><line id="_Path_8" data-name="&lt;Path&gt;" x1="12" y1="9" x2="13.75" y2="7.25" style="fill:none;stroke:#303c42;stroke-linecap:round;stroke-linejoin:round"/></g></g>
	<metadata>
		<rdf:RDF xmlns:rdf="http://www.w3.org/1999/02/22-rdf-syntax-ns#" xmlns:rdfs="http://www.w3.org/2000/01/rdf-schema#" xmlns:dc="http://purl.org/dc/elements/1.1/">
			<rdf:Description about="https://iconscout.com/legal#licenses" dc:title="social; media; social media; logo; joomla" dc:description="social; media; social media; logo; joomla" dc:publisher="Iconscout" dc:date="2017-02-21" dc:format="image/svg+xml" dc:language="en">
				<dc:creator>
					<rdf:Bag>
						<rdf:li>Alpár - Etele Méder</rdf:li>
					</rdf:Bag>
				</dc:creator>
			</rdf:Description>
		</rdf:RDF>
    </metadata></svg>
